<?xml version="1.0" encoding="utf-8" standalone="no"?>
<!DOCTYPE svg PUBLIC "-//W3C//DTD SVG 1.1//EN"
  "http://www.w3.org/Graphics/SVG/1.1/DTD/svg11.dtd">
<svg xmlns:xlink="http://www.w3.org/1999/xlink" width="720pt" height="360pt" viewBox="0 0 720 360" xmlns="http://www.w3.org/2000/svg" version="1.1">
 <metadata>
  <rdf:RDF xmlns:dc="http://purl.org/dc/elements/1.1/" xmlns:cc="http://creativecommons.org/ns#" xmlns:rdf="http://www.w3.org/1999/02/22-rdf-syntax-ns#">
   <cc:Work>
    <dc:type rdf:resource="http://purl.org/dc/dcmitype/StillImage"/>
    <dc:date>2025-08-05T14:29:43.606719</dc:date>
    <dc:format>image/svg+xml</dc:format>
    <dc:creator>
     <cc:Agent>
      <dc:title>Matplotlib v3.9.1, https://matplotlib.org/</dc:title>
     </cc:Agent>
    </dc:creator>
   </cc:Work>
  </rdf:RDF>
 </metadata>
 <defs>
  <style type="text/css">*{stroke-linejoin: round; stroke-linecap: butt}</style>
 </defs>
 <g id="figure_1">
  <g id="patch_1">
   <path d="M 0 360 
L 720 360 
L 720 0 
L 0 0 
z
" style="fill: #ffffff"/>
  </g>
  <g id="axes_1">
   <g id="patch_2">
    <path d="M 90 320.4 
L 648 320.4 
L 648 43.2 
L 90 43.2 
z
" style="fill: #ffffff"/>
   </g>
   <g id="matplotlib.axis_1">
    <g id="xtick_1">
     <g id="line2d_1">
      <path d="M 115.363636 320.4 
L 115.363636 43.2 
" clip-path="url(#pac719dfdc4)" style="fill: none; stroke: #b0b0b0; stroke-width: 0.8; stroke-linecap: square"/>
     </g>
     <g id="line2d_2">
      <defs>
       <path id="m6fcfdb30e1" d="M 0 0 
L 0 3.5 
" style="stroke: #000000; stroke-width: 0.8"/>
      </defs>
      <g>
       <use xlink:href="#m6fcfdb30e1" x="115.363636" y="320.4" style="stroke: #000000; stroke-width: 0.8"/>
      </g>
     </g>
     <g id="text_1">
      <!-- 0 -->
      <g transform="translate(112.182386 334.998438) scale(0.1 -0.1)">
       <defs>
        <path id="DejaVuSans-30" d="M 2034 4250 
Q 1547 4250 1301 3770 
Q 1056 3291 1056 2328 
Q 1056 1369 1301 889 
Q 1547 409 2034 409 
Q 2525 409 2770 889 
Q 3016 1369 3016 2328 
Q 3016 3291 2770 3770 
Q 2525 4250 2034 4250 
z
M 2034 4750 
Q 2819 4750 3233 4129 
Q 3647 3509 3647 2328 
Q 3647 1150 3233 529 
Q 2819 -91 2034 -91 
Q 1250 -91 836 529 
Q 422 1150 422 2328 
Q 422 3509 836 4129 
Q 1250 4750 2034 4750 
z
" transform="scale(0.015625)"/>
       </defs>
       <use xlink:href="#DejaVuSans-30"/>
      </g>
     </g>
    </g>
    <g id="xtick_2">
     <g id="line2d_3">
      <path d="M 225.640316 320.4 
L 225.640316 43.2 
" clip-path="url(#pac719dfdc4)" style="fill: none; stroke: #b0b0b0; stroke-width: 0.8; stroke-linecap: square"/>
     </g>
     <g id="line2d_4">
      <g>
       <use xlink:href="#m6fcfdb30e1" x="225.640316" y="320.4" style="stroke: #000000; stroke-width: 0.8"/>
      </g>
     </g>
     <g id="text_2">
      <!-- 20 -->
      <g transform="translate(219.277816 334.998438) scale(0.1 -0.1)">
       <defs>
        <path id="DejaVuSans-32" d="M 1228 531 
L 3431 531 
L 3431 0 
L 469 0 
L 469 531 
Q 828 903 1448 1529 
Q 2069 2156 2228 2338 
Q 2531 2678 2651 2914 
Q 2772 3150 2772 3378 
Q 2772 3750 2511 3984 
Q 2250 4219 1831 4219 
Q 1534 4219 1204 4116 
Q 875 4013 500 3803 
L 500 4441 
Q 881 4594 1212 4672 
Q 1544 4750 1819 4750 
Q 2544 4750 2975 4387 
Q 3406 4025 3406 3419 
Q 3406 3131 3298 2873 
Q 3191 2616 2906 2266 
Q 2828 2175 2409 1742 
Q 1991 1309 1228 531 
z
" transform="scale(0.015625)"/>
       </defs>
       <use xlink:href="#DejaVuSans-32"/>
       <use xlink:href="#DejaVuSans-30" x="63.623047"/>
      </g>
     </g>
    </g>
    <g id="xtick_3">
     <g id="line2d_5">
      <path d="M 335.916996 320.4 
L 335.916996 43.2 
" clip-path="url(#pac719dfdc4)" style="fill: none; stroke: #b0b0b0; stroke-width: 0.8; stroke-linecap: square"/>
     </g>
     <g id="line2d_6">
      <g>
       <use xlink:href="#m6fcfdb30e1" x="335.916996" y="320.4" style="stroke: #000000; stroke-width: 0.8"/>
      </g>
     </g>
     <g id="text_3">
      <!-- 40 -->
      <g transform="translate(329.554496 334.998438) scale(0.1 -0.1)">
       <defs>
        <path id="DejaVuSans-34" d="M 2419 4116 
L 825 1625 
L 2419 1625 
L 2419 4116 
z
M 2253 4666 
L 3047 4666 
L 3047 1625 
L 3713 1625 
L 3713 1100 
L 3047 1100 
L 3047 0 
L 2419 0 
L 2419 1100 
L 313 1100 
L 313 1709 
L 2253 4666 
z
" transform="scale(0.015625)"/>
       </defs>
       <use xlink:href="#DejaVuSans-34"/>
       <use xlink:href="#DejaVuSans-30" x="63.623047"/>
      </g>
     </g>
    </g>
    <g id="xtick_4">
     <g id="line2d_7">
      <path d="M 446.193676 320.4 
L 446.193676 43.2 
" clip-path="url(#pac719dfdc4)" style="fill: none; stroke: #b0b0b0; stroke-width: 0.8; stroke-linecap: square"/>
     </g>
     <g id="line2d_8">
      <g>
       <use xlink:href="#m6fcfdb30e1" x="446.193676" y="320.4" style="stroke: #000000; stroke-width: 0.8"/>
      </g>
     </g>
     <g id="text_4">
      <!-- 60 -->
      <g transform="translate(439.831176 334.998438) scale(0.1 -0.1)">
       <defs>
        <path id="DejaVuSans-36" d="M 2113 2584 
Q 1688 2584 1439 2293 
Q 1191 2003 1191 1497 
Q 1191 994 1439 701 
Q 1688 409 2113 409 
Q 2538 409 2786 701 
Q 3034 994 3034 1497 
Q 3034 2003 2786 2293 
Q 2538 2584 2113 2584 
z
M 3366 4563 
L 3366 3988 
Q 3128 4100 2886 4159 
Q 2644 4219 2406 4219 
Q 1781 4219 1451 3797 
Q 1122 3375 1075 2522 
Q 1259 2794 1537 2939 
Q 1816 3084 2150 3084 
Q 2853 3084 3261 2657 
Q 3669 2231 3669 1497 
Q 3669 778 3244 343 
Q 2819 -91 2113 -91 
Q 1303 -91 875 529 
Q 447 1150 447 2328 
Q 447 3434 972 4092 
Q 1497 4750 2381 4750 
Q 2619 4750 2861 4703 
Q 3103 4656 3366 4563 
z
" transform="scale(0.015625)"/>
       </defs>
       <use xlink:href="#DejaVuSans-36"/>
       <use xlink:href="#DejaVuSans-30" x="63.623047"/>
      </g>
     </g>
    </g>
    <g id="xtick_5">
     <g id="line2d_9">
      <path d="M 556.470356 320.4 
L 556.470356 43.2 
" clip-path="url(#pac719dfdc4)" style="fill: none; stroke: #b0b0b0; stroke-width: 0.8; stroke-linecap: square"/>
     </g>
     <g id="line2d_10">
      <g>
       <use xlink:href="#m6fcfdb30e1" x="556.470356" y="320.4" style="stroke: #000000; stroke-width: 0.8"/>
      </g>
     </g>
     <g id="text_5">
      <!-- 80 -->
      <g transform="translate(550.107856 334.998438) scale(0.1 -0.1)">
       <defs>
        <path id="DejaVuSans-38" d="M 2034 2216 
Q 1584 2216 1326 1975 
Q 1069 1734 1069 1313 
Q 1069 891 1326 650 
Q 1584 409 2034 409 
Q 2484 409 2743 651 
Q 3003 894 3003 1313 
Q 3003 1734 2745 1975 
Q 2488 2216 2034 2216 
z
M 1403 2484 
Q 997 2584 770 2862 
Q 544 3141 544 3541 
Q 544 4100 942 4425 
Q 1341 4750 2034 4750 
Q 2731 4750 3128 4425 
Q 3525 4100 3525 3541 
Q 3525 3141 3298 2862 
Q 3072 2584 2669 2484 
Q 3125 2378 3379 2068 
Q 3634 1759 3634 1313 
Q 3634 634 3220 271 
Q 2806 -91 2034 -91 
Q 1263 -91 848 271 
Q 434 634 434 1313 
Q 434 1759 690 2068 
Q 947 2378 1403 2484 
z
M 1172 3481 
Q 1172 3119 1398 2916 
Q 1625 2713 2034 2713 
Q 2441 2713 2670 2916 
Q 2900 3119 2900 3481 
Q 2900 3844 2670 4047 
Q 2441 4250 2034 4250 
Q 1625 4250 1398 4047 
Q 1172 3844 1172 3481 
z
" transform="scale(0.015625)"/>
       </defs>
       <use xlink:href="#DejaVuSans-38"/>
       <use xlink:href="#DejaVuSans-30" x="63.623047"/>
      </g>
     </g>
    </g>
    <g id="text_6">
     <!-- Index -->
     <g transform="translate(355.233594 348.676562) scale(0.1 -0.1)">
      <defs>
       <path id="DejaVuSans-49" d="M 628 4666 
L 1259 4666 
L 1259 0 
L 628 0 
L 628 4666 
z
" transform="scale(0.015625)"/>
       <path id="DejaVuSans-6e" d="M 3513 2113 
L 3513 0 
L 2938 0 
L 2938 2094 
Q 2938 2591 2744 2837 
Q 2550 3084 2163 3084 
Q 1697 3084 1428 2787 
Q 1159 2491 1159 1978 
L 1159 0 
L 581 0 
L 581 3500 
L 1159 3500 
L 1159 2956 
Q 1366 3272 1645 3428 
Q 1925 3584 2291 3584 
Q 2894 3584 3203 3211 
Q 3513 2838 3513 2113 
z
" transform="scale(0.015625)"/>
       <path id="DejaVuSans-64" d="M 2906 2969 
L 2906 4863 
L 3481 4863 
L 3481 0 
L 2906 0 
L 2906 525 
Q 2725 213 2448 61 
Q 2172 -91 1784 -91 
Q 1150 -91 751 415 
Q 353 922 353 1747 
Q 353 2572 751 3078 
Q 1150 3584 1784 3584 
Q 2172 3584 2448 3432 
Q 2725 3281 2906 2969 
z
M 947 1747 
Q 947 1113 1208 752 
Q 1469 391 1925 391 
Q 2381 391 2643 752 
Q 2906 1113 2906 1747 
Q 2906 2381 2643 2742 
Q 2381 3103 1925 3103 
Q 1469 3103 1208 2742 
Q 947 2381 947 1747 
z
" transform="scale(0.015625)"/>
       <path id="DejaVuSans-65" d="M 3597 1894 
L 3597 1613 
L 953 1613 
Q 991 1019 1311 708 
Q 1631 397 2203 397 
Q 2534 397 2845 478 
Q 3156 559 3463 722 
L 3463 178 
Q 3153 47 2828 -22 
Q 2503 -91 2169 -91 
Q 1331 -91 842 396 
Q 353 884 353 1716 
Q 353 2575 817 3079 
Q 1281 3584 2069 3584 
Q 2775 3584 3186 3129 
Q 3597 2675 3597 1894 
z
M 3022 2063 
Q 3016 2534 2758 2815 
Q 2500 3097 2075 3097 
Q 1594 3097 1305 2825 
Q 1016 2553 972 2059 
L 3022 2063 
z
" transform="scale(0.015625)"/>
       <path id="DejaVuSans-78" d="M 3513 3500 
L 2247 1797 
L 3578 0 
L 2900 0 
L 1881 1375 
L 863 0 
L 184 0 
L 1544 1831 
L 300 3500 
L 978 3500 
L 1906 2253 
L 2834 3500 
L 3513 3500 
z
" transform="scale(0.015625)"/>
      </defs>
      <use xlink:href="#DejaVuSans-49"/>
      <use xlink:href="#DejaVuSans-6e" x="29.492188"/>
      <use xlink:href="#DejaVuSans-64" x="92.871094"/>
      <use xlink:href="#DejaVuSans-65" x="156.347656"/>
      <use xlink:href="#DejaVuSans-78" x="216.121094"/>
     </g>
    </g>
   </g>
   <g id="matplotlib.axis_2">
    <g id="ytick_1">
     <g id="line2d_11">
      <path d="M 90 292.976471 
L 648 292.976471 
" clip-path="url(#pac719dfdc4)" style="fill: none; stroke: #b0b0b0; stroke-width: 0.8; stroke-linecap: square"/>
     </g>
     <g id="line2d_12">
      <defs>
       <path id="m63a3d04a37" d="M 0 0 
L -3.5 0 
" style="stroke: #000000; stroke-width: 0.8"/>
      </defs>
      <g>
       <use xlink:href="#m63a3d04a37" x="90" y="292.976471" style="stroke: #000000; stroke-width: 0.8"/>
      </g>
     </g>
     <g id="text_7">
      <!-- 10.0 -->
      <g transform="translate(60.734375 296.775689) scale(0.1 -0.1)">
       <defs>
        <path id="DejaVuSans-31" d="M 794 531 
L 1825 531 
L 1825 4091 
L 703 3866 
L 703 4441 
L 1819 4666 
L 2450 4666 
L 2450 531 
L 3481 531 
L 3481 0 
L 794 0 
L 794 531 
z
" transform="scale(0.015625)"/>
        <path id="DejaVuSans-2e" d="M 684 794 
L 1344 794 
L 1344 0 
L 684 0 
L 684 794 
z
" transform="scale(0.015625)"/>
       </defs>
       <use xlink:href="#DejaVuSans-31"/>
       <use xlink:href="#DejaVuSans-30" x="63.623047"/>
       <use xlink:href="#DejaVuSans-2e" x="127.246094"/>
       <use xlink:href="#DejaVuSans-30" x="159.033203"/>
      </g>
     </g>
    </g>
    <g id="ytick_2">
     <g id="line2d_13">
      <path d="M 90 255.917647 
L 648 255.917647 
" clip-path="url(#pac719dfdc4)" style="fill: none; stroke: #b0b0b0; stroke-width: 0.8; stroke-linecap: square"/>
     </g>
     <g id="line2d_14">
      <g>
       <use xlink:href="#m63a3d04a37" x="90" y="255.917647" style="stroke: #000000; stroke-width: 0.8"/>
      </g>
     </g>
     <g id="text_8">
      <!-- 12.5 -->
      <g transform="translate(60.734375 259.716866) scale(0.1 -0.1)">
       <defs>
        <path id="DejaVuSans-35" d="M 691 4666 
L 3169 4666 
L 3169 4134 
L 1269 4134 
L 1269 2991 
Q 1406 3038 1543 3061 
Q 1681 3084 1819 3084 
Q 2600 3084 3056 2656 
Q 3513 2228 3513 1497 
Q 3513 744 3044 326 
Q 2575 -91 1722 -91 
Q 1428 -91 1123 -41 
Q 819 9 494 109 
L 494 744 
Q 775 591 1075 516 
Q 1375 441 1709 441 
Q 2250 441 2565 725 
Q 2881 1009 2881 1497 
Q 2881 1984 2565 2268 
Q 2250 2553 1709 2553 
Q 1456 2553 1204 2497 
Q 953 2441 691 2322 
L 691 4666 
z
" transform="scale(0.015625)"/>
       </defs>
       <use xlink:href="#DejaVuSans-31"/>
       <use xlink:href="#DejaVuSans-32" x="63.623047"/>
       <use xlink:href="#DejaVuSans-2e" x="127.246094"/>
       <use xlink:href="#DejaVuSans-35" x="159.033203"/>
      </g>
     </g>
    </g>
    <g id="ytick_3">
     <g id="line2d_15">
      <path d="M 90 218.858824 
L 648 218.858824 
" clip-path="url(#pac719dfdc4)" style="fill: none; stroke: #b0b0b0; stroke-width: 0.8; stroke-linecap: square"/>
     </g>
     <g id="line2d_16">
      <g>
       <use xlink:href="#m63a3d04a37" x="90" y="218.858824" style="stroke: #000000; stroke-width: 0.8"/>
      </g>
     </g>
     <g id="text_9">
      <!-- 15.0 -->
      <g transform="translate(60.734375 222.658042) scale(0.1 -0.1)">
       <use xlink:href="#DejaVuSans-31"/>
       <use xlink:href="#DejaVuSans-35" x="63.623047"/>
       <use xlink:href="#DejaVuSans-2e" x="127.246094"/>
       <use xlink:href="#DejaVuSans-30" x="159.033203"/>
      </g>
     </g>
    </g>
    <g id="ytick_4">
     <g id="line2d_17">
      <path d="M 90 181.8 
L 648 181.8 
" clip-path="url(#pac719dfdc4)" style="fill: none; stroke: #b0b0b0; stroke-width: 0.8; stroke-linecap: square"/>
     </g>
     <g id="line2d_18">
      <g>
       <use xlink:href="#m63a3d04a37" x="90" y="181.8" style="stroke: #000000; stroke-width: 0.8"/>
      </g>
     </g>
     <g id="text_10">
      <!-- 17.5 -->
      <g transform="translate(60.734375 185.599219) scale(0.1 -0.1)">
       <defs>
        <path id="DejaVuSans-37" d="M 525 4666 
L 3525 4666 
L 3525 4397 
L 1831 0 
L 1172 0 
L 2766 4134 
L 525 4134 
L 525 4666 
z
" transform="scale(0.015625)"/>
       </defs>
       <use xlink:href="#DejaVuSans-31"/>
       <use xlink:href="#DejaVuSans-37" x="63.623047"/>
       <use xlink:href="#DejaVuSans-2e" x="127.246094"/>
       <use xlink:href="#DejaVuSans-35" x="159.033203"/>
      </g>
     </g>
    </g>
    <g id="ytick_5">
     <g id="line2d_19">
      <path d="M 90 144.741176 
L 648 144.741176 
" clip-path="url(#pac719dfdc4)" style="fill: none; stroke: #b0b0b0; stroke-width: 0.8; stroke-linecap: square"/>
     </g>
     <g id="line2d_20">
      <g>
       <use xlink:href="#m63a3d04a37" x="90" y="144.741176" style="stroke: #000000; stroke-width: 0.8"/>
      </g>
     </g>
     <g id="text_11">
      <!-- 20.0 -->
      <g transform="translate(60.734375 148.540395) scale(0.1 -0.1)">
       <use xlink:href="#DejaVuSans-32"/>
       <use xlink:href="#DejaVuSans-30" x="63.623047"/>
       <use xlink:href="#DejaVuSans-2e" x="127.246094"/>
       <use xlink:href="#DejaVuSans-30" x="159.033203"/>
      </g>
     </g>
    </g>
    <g id="ytick_6">
     <g id="line2d_21">
      <path d="M 90 107.682353 
L 648 107.682353 
" clip-path="url(#pac719dfdc4)" style="fill: none; stroke: #b0b0b0; stroke-width: 0.8; stroke-linecap: square"/>
     </g>
     <g id="line2d_22">
      <g>
       <use xlink:href="#m63a3d04a37" x="90" y="107.682353" style="stroke: #000000; stroke-width: 0.8"/>
      </g>
     </g>
     <g id="text_12">
      <!-- 22.5 -->
      <g transform="translate(60.734375 111.481572) scale(0.1 -0.1)">
       <use xlink:href="#DejaVuSans-32"/>
       <use xlink:href="#DejaVuSans-32" x="63.623047"/>
       <use xlink:href="#DejaVuSans-2e" x="127.246094"/>
       <use xlink:href="#DejaVuSans-35" x="159.033203"/>
      </g>
     </g>
    </g>
    <g id="ytick_7">
     <g id="line2d_23">
      <path d="M 90 70.623529 
L 648 70.623529 
" clip-path="url(#pac719dfdc4)" style="fill: none; stroke: #b0b0b0; stroke-width: 0.8; stroke-linecap: square"/>
     </g>
     <g id="line2d_24">
      <g>
       <use xlink:href="#m63a3d04a37" x="90" y="70.623529" style="stroke: #000000; stroke-width: 0.8"/>
      </g>
     </g>
     <g id="text_13">
      <!-- 25.0 -->
      <g transform="translate(60.734375 74.422748) scale(0.1 -0.1)">
       <use xlink:href="#DejaVuSans-32"/>
       <use xlink:href="#DejaVuSans-35" x="63.623047"/>
       <use xlink:href="#DejaVuSans-2e" x="127.246094"/>
       <use xlink:href="#DejaVuSans-30" x="159.033203"/>
      </g>
     </g>
    </g>
    <g id="text_14">
     <!-- Latency (ms) -->
     <g transform="translate(54.654687 214.529687) rotate(-90) scale(0.1 -0.1)">
      <defs>
       <path id="DejaVuSans-4c" d="M 628 4666 
L 1259 4666 
L 1259 531 
L 3531 531 
L 3531 0 
L 628 0 
L 628 4666 
z
" transform="scale(0.015625)"/>
       <path id="DejaVuSans-61" d="M 2194 1759 
Q 1497 1759 1228 1600 
Q 959 1441 959 1056 
Q 959 750 1161 570 
Q 1363 391 1709 391 
Q 2188 391 2477 730 
Q 2766 1069 2766 1631 
L 2766 1759 
L 2194 1759 
z
M 3341 1997 
L 3341 0 
L 2766 0 
L 2766 531 
Q 2569 213 2275 61 
Q 1981 -91 1556 -91 
Q 1019 -91 701 211 
Q 384 513 384 1019 
Q 384 1609 779 1909 
Q 1175 2209 1959 2209 
L 2766 2209 
L 2766 2266 
Q 2766 2663 2505 2880 
Q 2244 3097 1772 3097 
Q 1472 3097 1187 3025 
Q 903 2953 641 2809 
L 641 3341 
Q 956 3463 1253 3523 
Q 1550 3584 1831 3584 
Q 2591 3584 2966 3190 
Q 3341 2797 3341 1997 
z
" transform="scale(0.015625)"/>
       <path id="DejaVuSans-74" d="M 1172 4494 
L 1172 3500 
L 2356 3500 
L 2356 3053 
L 1172 3053 
L 1172 1153 
Q 1172 725 1289 603 
Q 1406 481 1766 481 
L 2356 481 
L 2356 0 
L 1766 0 
Q 1100 0 847 248 
Q 594 497 594 1153 
L 594 3053 
L 172 3053 
L 172 3500 
L 594 3500 
L 594 4494 
L 1172 4494 
z
" transform="scale(0.015625)"/>
       <path id="DejaVuSans-63" d="M 3122 3366 
L 3122 2828 
Q 2878 2963 2633 3030 
Q 2388 3097 2138 3097 
Q 1578 3097 1268 2742 
Q 959 2388 959 1747 
Q 959 1106 1268 751 
Q 1578 397 2138 397 
Q 2388 397 2633 464 
Q 2878 531 3122 666 
L 3122 134 
Q 2881 22 2623 -34 
Q 2366 -91 2075 -91 
Q 1284 -91 818 406 
Q 353 903 353 1747 
Q 353 2603 823 3093 
Q 1294 3584 2113 3584 
Q 2378 3584 2631 3529 
Q 2884 3475 3122 3366 
z
" transform="scale(0.015625)"/>
       <path id="DejaVuSans-79" d="M 2059 -325 
Q 1816 -950 1584 -1140 
Q 1353 -1331 966 -1331 
L 506 -1331 
L 506 -850 
L 844 -850 
Q 1081 -850 1212 -737 
Q 1344 -625 1503 -206 
L 1606 56 
L 191 3500 
L 800 3500 
L 1894 763 
L 2988 3500 
L 3597 3500 
L 2059 -325 
z
" transform="scale(0.015625)"/>
       <path id="DejaVuSans-20" transform="scale(0.015625)"/>
       <path id="DejaVuSans-28" d="M 1984 4856 
Q 1566 4138 1362 3434 
Q 1159 2731 1159 2009 
Q 1159 1288 1364 580 
Q 1569 -128 1984 -844 
L 1484 -844 
Q 1016 -109 783 600 
Q 550 1309 550 2009 
Q 550 2706 781 3412 
Q 1013 4119 1484 4856 
L 1984 4856 
z
" transform="scale(0.015625)"/>
       <path id="DejaVuSans-6d" d="M 3328 2828 
Q 3544 3216 3844 3400 
Q 4144 3584 4550 3584 
Q 5097 3584 5394 3201 
Q 5691 2819 5691 2113 
L 5691 0 
L 5113 0 
L 5113 2094 
Q 5113 2597 4934 2840 
Q 4756 3084 4391 3084 
Q 3944 3084 3684 2787 
Q 3425 2491 3425 1978 
L 3425 0 
L 2847 0 
L 2847 2094 
Q 2847 2600 2669 2842 
Q 2491 3084 2119 3084 
Q 1678 3084 1418 2786 
Q 1159 2488 1159 1978 
L 1159 0 
L 581 0 
L 581 3500 
L 1159 3500 
L 1159 2956 
Q 1356 3278 1631 3431 
Q 1906 3584 2284 3584 
Q 2666 3584 2933 3390 
Q 3200 3197 3328 2828 
z
" transform="scale(0.015625)"/>
       <path id="DejaVuSans-73" d="M 2834 3397 
L 2834 2853 
Q 2591 2978 2328 3040 
Q 2066 3103 1784 3103 
Q 1356 3103 1142 2972 
Q 928 2841 928 2578 
Q 928 2378 1081 2264 
Q 1234 2150 1697 2047 
L 1894 2003 
Q 2506 1872 2764 1633 
Q 3022 1394 3022 966 
Q 3022 478 2636 193 
Q 2250 -91 1575 -91 
Q 1294 -91 989 -36 
Q 684 19 347 128 
L 347 722 
Q 666 556 975 473 
Q 1284 391 1588 391 
Q 1994 391 2212 530 
Q 2431 669 2431 922 
Q 2431 1156 2273 1281 
Q 2116 1406 1581 1522 
L 1381 1569 
Q 847 1681 609 1914 
Q 372 2147 372 2553 
Q 372 3047 722 3315 
Q 1072 3584 1716 3584 
Q 2034 3584 2315 3537 
Q 2597 3491 2834 3397 
z
" transform="scale(0.015625)"/>
       <path id="DejaVuSans-29" d="M 513 4856 
L 1013 4856 
Q 1481 4119 1714 3412 
Q 1947 2706 1947 2009 
Q 1947 1309 1714 600 
Q 1481 -109 1013 -844 
L 513 -844 
Q 928 -128 1133 580 
Q 1338 1288 1338 2009 
Q 1338 2731 1133 3434 
Q 928 4138 513 4856 
z
" transform="scale(0.015625)"/>
      </defs>
      <use xlink:href="#DejaVuSans-4c"/>
      <use xlink:href="#DejaVuSans-61" x="55.712891"/>
      <use xlink:href="#DejaVuSans-74" x="116.992188"/>
      <use xlink:href="#DejaVuSans-65" x="156.201172"/>
      <use xlink:href="#DejaVuSans-6e" x="217.724609"/>
      <use xlink:href="#DejaVuSans-63" x="281.103516"/>
      <use xlink:href="#DejaVuSans-79" x="336.083984"/>
      <use xlink:href="#DejaVuSans-20" x="395.263672"/>
      <use xlink:href="#DejaVuSans-28" x="427.050781"/>
      <use xlink:href="#DejaVuSans-6d" x="466.064453"/>
      <use xlink:href="#DejaVuSans-73" x="563.476562"/>
      <use xlink:href="#DejaVuSans-29" x="615.576172"/>
     </g>
    </g>
   </g>
   <g id="line2d_25">
    <path d="M 115.363636 85.447059 
L 120.87747 85.447059 
L 126.391304 85.447059 
L 131.905138 115.094118 
L 137.418972 85.447059 
L 142.932806 129.917647 
L 148.44664 144.741176 
L 153.960474 144.741176 
L 159.474308 189.211765 
L 164.988142 100.270588 
L 170.501976 159.564706 
L 176.01581 129.917647 
L 181.529644 204.035294 
L 187.043478 174.388235 
L 192.557312 115.094118 
L 198.071146 70.623529 
L 203.58498 85.447059 
L 209.098814 189.211765 
L 214.612648 55.8 
L 220.126482 70.623529 
L 225.640316 174.388235 
L 231.15415 174.388235 
L 236.667984 115.094118 
L 242.181818 233.682353 
L 247.695652 189.211765 
L 253.209486 204.035294 
L 258.72332 174.388235 
L 264.237154 204.035294 
L 269.750988 159.564706 
L 275.264822 115.094118 
L 280.778656 129.917647 
L 286.29249 159.564706 
L 291.806324 144.741176 
L 297.320158 174.388235 
L 302.833992 159.564706 
L 308.347826 204.035294 
L 313.86166 189.211765 
L 319.375494 174.388235 
L 324.889328 218.858824 
L 330.403162 159.564706 
L 335.916996 174.388235 
L 341.43083 115.094118 
L 346.944664 100.270588 
L 352.458498 189.211765 
L 357.972332 159.564706 
L 363.486166 144.741176 
L 369 174.388235 
L 374.513834 174.388235 
L 380.027668 129.917647 
L 385.541502 115.094118 
L 391.055336 100.270588 
L 396.56917 159.564706 
L 402.083004 174.388235 
L 407.596838 159.564706 
L 413.110672 144.741176 
L 418.624506 144.741176 
L 424.13834 189.211765 
L 429.652174 174.388235 
L 435.166008 129.917647 
L 440.679842 204.035294 
L 446.193676 189.211765 
L 451.70751 218.858824 
L 457.221344 174.388235 
L 462.735178 159.564706 
L 468.249012 174.388235 
L 473.762846 218.858824 
L 479.27668 189.211765 
L 484.790514 204.035294 
L 490.304348 144.741176 
L 495.818182 144.741176 
L 501.332016 189.211765 
L 506.84585 248.505882 
L 512.359684 233.682353 
L 517.873518 233.682353 
L 523.387352 263.329412 
L 528.901186 233.682353 
L 534.41502 144.741176 
L 539.928854 233.682353 
L 545.442688 218.858824 
L 550.956522 278.152941 
L 556.470356 204.035294 
L 561.98419 307.8 
L 567.498024 233.682353 
L 573.011858 204.035294 
L 578.525692 174.388235 
L 584.039526 233.682353 
L 589.55336 204.035294 
L 595.067194 144.741176 
L 600.581028 129.917647 
L 606.094862 204.035294 
L 611.608696 159.564706 
L 617.12253 129.917647 
L 622.636364 100.270588 
" clip-path="url(#pac719dfdc4)" style="fill: none; stroke: #1f77b4; stroke-width: 1.5; stroke-linecap: square"/>
    <defs>
     <path id="mc7ca9cbfb0" d="M 0 3 
C 0.795609 3 1.55874 2.683901 2.12132 2.12132 
C 2.683901 1.55874 3 0.795609 3 0 
C 3 -0.795609 2.683901 -1.55874 2.12132 -2.12132 
C 1.55874 -2.683901 0.795609 -3 0 -3 
C -0.795609 -3 -1.55874 -2.683901 -2.12132 -2.12132 
C -2.683901 -1.55874 -3 -0.795609 -3 0 
C -3 0.795609 -2.683901 1.55874 -2.12132 2.12132 
C -1.55874 2.683901 -0.795609 3 0 3 
z
" style="stroke: #1f77b4"/>
    </defs>
    <g clip-path="url(#pac719dfdc4)">
     <use xlink:href="#mc7ca9cbfb0" x="115.363636" y="85.447059" style="fill: #1f77b4; stroke: #1f77b4"/>
     <use xlink:href="#mc7ca9cbfb0" x="120.87747" y="85.447059" style="fill: #1f77b4; stroke: #1f77b4"/>
     <use xlink:href="#mc7ca9cbfb0" x="126.391304" y="85.447059" style="fill: #1f77b4; stroke: #1f77b4"/>
     <use xlink:href="#mc7ca9cbfb0" x="131.905138" y="115.094118" style="fill: #1f77b4; stroke: #1f77b4"/>
     <use xlink:href="#mc7ca9cbfb0" x="137.418972" y="85.447059" style="fill: #1f77b4; stroke: #1f77b4"/>
     <use xlink:href="#mc7ca9cbfb0" x="142.932806" y="129.917647" style="fill: #1f77b4; stroke: #1f77b4"/>
     <use xlink:href="#mc7ca9cbfb0" x="148.44664" y="144.741176" style="fill: #1f77b4; stroke: #1f77b4"/>
     <use xlink:href="#mc7ca9cbfb0" x="153.960474" y="144.741176" style="fill: #1f77b4; stroke: #1f77b4"/>
     <use xlink:href="#mc7ca9cbfb0" x="159.474308" y="189.211765" style="fill: #1f77b4; stroke: #1f77b4"/>
     <use xlink:href="#mc7ca9cbfb0" x="164.988142" y="100.270588" style="fill: #1f77b4; stroke: #1f77b4"/>
     <use xlink:href="#mc7ca9cbfb0" x="170.501976" y="159.564706" style="fill: #1f77b4; stroke: #1f77b4"/>
     <use xlink:href="#mc7ca9cbfb0" x="176.01581" y="129.917647" style="fill: #1f77b4; stroke: #1f77b4"/>
     <use xlink:href="#mc7ca9cbfb0" x="181.529644" y="204.035294" style="fill: #1f77b4; stroke: #1f77b4"/>
     <use xlink:href="#mc7ca9cbfb0" x="187.043478" y="174.388235" style="fill: #1f77b4; stroke: #1f77b4"/>
     <use xlink:href="#mc7ca9cbfb0" x="192.557312" y="115.094118" style="fill: #1f77b4; stroke: #1f77b4"/>
     <use xlink:href="#mc7ca9cbfb0" x="198.071146" y="70.623529" style="fill: #1f77b4; stroke: #1f77b4"/>
     <use xlink:href="#mc7ca9cbfb0" x="203.58498" y="85.447059" style="fill: #1f77b4; stroke: #1f77b4"/>
     <use xlink:href="#mc7ca9cbfb0" x="209.098814" y="189.211765" style="fill: #1f77b4; stroke: #1f77b4"/>
     <use xlink:href="#mc7ca9cbfb0" x="214.612648" y="55.8" style="fill: #1f77b4; stroke: #1f77b4"/>
     <use xlink:href="#mc7ca9cbfb0" x="220.126482" y="70.623529" style="fill: #1f77b4; stroke: #1f77b4"/>
     <use xlink:href="#mc7ca9cbfb0" x="225.640316" y="174.388235" style="fill: #1f77b4; stroke: #1f77b4"/>
     <use xlink:href="#mc7ca9cbfb0" x="231.15415" y="174.388235" style="fill: #1f77b4; stroke: #1f77b4"/>
     <use xlink:href="#mc7ca9cbfb0" x="236.667984" y="115.094118" style="fill: #1f77b4; stroke: #1f77b4"/>
     <use xlink:href="#mc7ca9cbfb0" x="242.181818" y="233.682353" style="fill: #1f77b4; stroke: #1f77b4"/>
     <use xlink:href="#mc7ca9cbfb0" x="247.695652" y="189.211765" style="fill: #1f77b4; stroke: #1f77b4"/>
     <use xlink:href="#mc7ca9cbfb0" x="253.209486" y="204.035294" style="fill: #1f77b4; stroke: #1f77b4"/>
     <use xlink:href="#mc7ca9cbfb0" x="258.72332" y="174.388235" style="fill: #1f77b4; stroke: #1f77b4"/>
     <use xlink:href="#mc7ca9cbfb0" x="264.237154" y="204.035294" style="fill: #1f77b4; stroke: #1f77b4"/>
     <use xlink:href="#mc7ca9cbfb0" x="269.750988" y="159.564706" style="fill: #1f77b4; stroke: #1f77b4"/>
     <use xlink:href="#mc7ca9cbfb0" x="275.264822" y="115.094118" style="fill: #1f77b4; stroke: #1f77b4"/>
     <use xlink:href="#mc7ca9cbfb0" x="280.778656" y="129.917647" style="fill: #1f77b4; stroke: #1f77b4"/>
     <use xlink:href="#mc7ca9cbfb0" x="286.29249" y="159.564706" style="fill: #1f77b4; stroke: #1f77b4"/>
     <use xlink:href="#mc7ca9cbfb0" x="291.806324" y="144.741176" style="fill: #1f77b4; stroke: #1f77b4"/>
     <use xlink:href="#mc7ca9cbfb0" x="297.320158" y="174.388235" style="fill: #1f77b4; stroke: #1f77b4"/>
     <use xlink:href="#mc7ca9cbfb0" x="302.833992" y="159.564706" style="fill: #1f77b4; stroke: #1f77b4"/>
     <use xlink:href="#mc7ca9cbfb0" x="308.347826" y="204.035294" style="fill: #1f77b4; stroke: #1f77b4"/>
     <use xlink:href="#mc7ca9cbfb0" x="313.86166" y="189.211765" style="fill: #1f77b4; stroke: #1f77b4"/>
     <use xlink:href="#mc7ca9cbfb0" x="319.375494" y="174.388235" style="fill: #1f77b4; stroke: #1f77b4"/>
     <use xlink:href="#mc7ca9cbfb0" x="324.889328" y="218.858824" style="fill: #1f77b4; stroke: #1f77b4"/>
     <use xlink:href="#mc7ca9cbfb0" x="330.403162" y="159.564706" style="fill: #1f77b4; stroke: #1f77b4"/>
     <use xlink:href="#mc7ca9cbfb0" x="335.916996" y="174.388235" style="fill: #1f77b4; stroke: #1f77b4"/>
     <use xlink:href="#mc7ca9cbfb0" x="341.43083" y="115.094118" style="fill: #1f77b4; stroke: #1f77b4"/>
     <use xlink:href="#mc7ca9cbfb0" x="346.944664" y="100.270588" style="fill: #1f77b4; stroke: #1f77b4"/>
     <use xlink:href="#mc7ca9cbfb0" x="352.458498" y="189.211765" style="fill: #1f77b4; stroke: #1f77b4"/>
     <use xlink:href="#mc7ca9cbfb0" x="357.972332" y="159.564706" style="fill: #1f77b4; stroke: #1f77b4"/>
     <use xlink:href="#mc7ca9cbfb0" x="363.486166" y="144.741176" style="fill: #1f77b4; stroke: #1f77b4"/>
     <use xlink:href="#mc7ca9cbfb0" x="369" y="174.388235" style="fill: #1f77b4; stroke: #1f77b4"/>
     <use xlink:href="#mc7ca9cbfb0" x="374.513834" y="174.388235" style="fill: #1f77b4; stroke: #1f77b4"/>
     <use xlink:href="#mc7ca9cbfb0" x="380.027668" y="129.917647" style="fill: #1f77b4; stroke: #1f77b4"/>
     <use xlink:href="#mc7ca9cbfb0" x="385.541502" y="115.094118" style="fill: #1f77b4; stroke: #1f77b4"/>
     <use xlink:href="#mc7ca9cbfb0" x="391.055336" y="100.270588" style="fill: #1f77b4; stroke: #1f77b4"/>
     <use xlink:href="#mc7ca9cbfb0" x="396.56917" y="159.564706" style="fill: #1f77b4; stroke: #1f77b4"/>
     <use xlink:href="#mc7ca9cbfb0" x="402.083004" y="174.388235" style="fill: #1f77b4; stroke: #1f77b4"/>
     <use xlink:href="#mc7ca9cbfb0" x="407.596838" y="159.564706" style="fill: #1f77b4; stroke: #1f77b4"/>
     <use xlink:href="#mc7ca9cbfb0" x="413.110672" y="144.741176" style="fill: #1f77b4; stroke: #1f77b4"/>
     <use xlink:href="#mc7ca9cbfb0" x="418.624506" y="144.741176" style="fill: #1f77b4; stroke: #1f77b4"/>
     <use xlink:href="#mc7ca9cbfb0" x="424.13834" y="189.211765" style="fill: #1f77b4; stroke: #1f77b4"/>
     <use xlink:href="#mc7ca9cbfb0" x="429.652174" y="174.388235" style="fill: #1f77b4; stroke: #1f77b4"/>
     <use xlink:href="#mc7ca9cbfb0" x="435.166008" y="129.917647" style="fill: #1f77b4; stroke: #1f77b4"/>
     <use xlink:href="#mc7ca9cbfb0" x="440.679842" y="204.035294" style="fill: #1f77b4; stroke: #1f77b4"/>
     <use xlink:href="#mc7ca9cbfb0" x="446.193676" y="189.211765" style="fill: #1f77b4; stroke: #1f77b4"/>
     <use xlink:href="#mc7ca9cbfb0" x="451.70751" y="218.858824" style="fill: #1f77b4; stroke: #1f77b4"/>
     <use xlink:href="#mc7ca9cbfb0" x="457.221344" y="174.388235" style="fill: #1f77b4; stroke: #1f77b4"/>
     <use xlink:href="#mc7ca9cbfb0" x="462.735178" y="159.564706" style="fill: #1f77b4; stroke: #1f77b4"/>
     <use xlink:href="#mc7ca9cbfb0" x="468.249012" y="174.388235" style="fill: #1f77b4; stroke: #1f77b4"/>
     <use xlink:href="#mc7ca9cbfb0" x="473.762846" y="218.858824" style="fill: #1f77b4; stroke: #1f77b4"/>
     <use xlink:href="#mc7ca9cbfb0" x="479.27668" y="189.211765" style="fill: #1f77b4; stroke: #1f77b4"/>
     <use xlink:href="#mc7ca9cbfb0" x="484.790514" y="204.035294" style="fill: #1f77b4; stroke: #1f77b4"/>
     <use xlink:href="#mc7ca9cbfb0" x="490.304348" y="144.741176" style="fill: #1f77b4; stroke: #1f77b4"/>
     <use xlink:href="#mc7ca9cbfb0" x="495.818182" y="144.741176" style="fill: #1f77b4; stroke: #1f77b4"/>
     <use xlink:href="#mc7ca9cbfb0" x="501.332016" y="189.211765" style="fill: #1f77b4; stroke: #1f77b4"/>
     <use xlink:href="#mc7ca9cbfb0" x="506.84585" y="248.505882" style="fill: #1f77b4; stroke: #1f77b4"/>
     <use xlink:href="#mc7ca9cbfb0" x="512.359684" y="233.682353" style="fill: #1f77b4; stroke: #1f77b4"/>
     <use xlink:href="#mc7ca9cbfb0" x="517.873518" y="233.682353" style="fill: #1f77b4; stroke: #1f77b4"/>
     <use xlink:href="#mc7ca9cbfb0" x="523.387352" y="263.329412" style="fill: #1f77b4; stroke: #1f77b4"/>
     <use xlink:href="#mc7ca9cbfb0" x="528.901186" y="233.682353" style="fill: #1f77b4; stroke: #1f77b4"/>
     <use xlink:href="#mc7ca9cbfb0" x="534.41502" y="144.741176" style="fill: #1f77b4; stroke: #1f77b4"/>
     <use xlink:href="#mc7ca9cbfb0" x="539.928854" y="233.682353" style="fill: #1f77b4; stroke: #1f77b4"/>
     <use xlink:href="#mc7ca9cbfb0" x="545.442688" y="218.858824" style="fill: #1f77b4; stroke: #1f77b4"/>
     <use xlink:href="#mc7ca9cbfb0" x="550.956522" y="278.152941" style="fill: #1f77b4; stroke: #1f77b4"/>
     <use xlink:href="#mc7ca9cbfb0" x="556.470356" y="204.035294" style="fill: #1f77b4; stroke: #1f77b4"/>
     <use xlink:href="#mc7ca9cbfb0" x="561.98419" y="307.8" style="fill: #1f77b4; stroke: #1f77b4"/>
     <use xlink:href="#mc7ca9cbfb0" x="567.498024" y="233.682353" style="fill: #1f77b4; stroke: #1f77b4"/>
     <use xlink:href="#mc7ca9cbfb0" x="573.011858" y="204.035294" style="fill: #1f77b4; stroke: #1f77b4"/>
     <use xlink:href="#mc7ca9cbfb0" x="578.525692" y="174.388235" style="fill: #1f77b4; stroke: #1f77b4"/>
     <use xlink:href="#mc7ca9cbfb0" x="584.039526" y="233.682353" style="fill: #1f77b4; stroke: #1f77b4"/>
     <use xlink:href="#mc7ca9cbfb0" x="589.55336" y="204.035294" style="fill: #1f77b4; stroke: #1f77b4"/>
     <use xlink:href="#mc7ca9cbfb0" x="595.067194" y="144.741176" style="fill: #1f77b4; stroke: #1f77b4"/>
     <use xlink:href="#mc7ca9cbfb0" x="600.581028" y="129.917647" style="fill: #1f77b4; stroke: #1f77b4"/>
     <use xlink:href="#mc7ca9cbfb0" x="606.094862" y="204.035294" style="fill: #1f77b4; stroke: #1f77b4"/>
     <use xlink:href="#mc7ca9cbfb0" x="611.608696" y="159.564706" style="fill: #1f77b4; stroke: #1f77b4"/>
     <use xlink:href="#mc7ca9cbfb0" x="617.12253" y="129.917647" style="fill: #1f77b4; stroke: #1f77b4"/>
     <use xlink:href="#mc7ca9cbfb0" x="622.636364" y="100.270588" style="fill: #1f77b4; stroke: #1f77b4"/>
    </g>
   </g>
   <g id="line2d_26">
    <path d="M 90 307.8 
L 648 307.8 
" clip-path="url(#pac719dfdc4)" style="fill: none; stroke-dasharray: 5.55,2.4; stroke-dashoffset: 0; stroke: #808080; stroke-width: 1.5"/>
   </g>
   <g id="line2d_27">
    <path d="M 90 55.8 
L 648 55.8 
" clip-path="url(#pac719dfdc4)" style="fill: none; stroke-dasharray: 5.55,2.4; stroke-dashoffset: 0; stroke: #000000; stroke-width: 1.5"/>
   </g>
   <g id="line2d_28">
    <path d="M 90 174.388235 
L 648 174.388235 
" clip-path="url(#pac719dfdc4)" style="fill: none; stroke-dasharray: 1.5,2.475; stroke-dashoffset: 0; stroke: #800080; stroke-width: 1.5"/>
   </g>
   <g id="line2d_29">
    <path d="M 90 166.259203 
L 648 166.259203 
" clip-path="url(#pac719dfdc4)" style="fill: none; stroke-dasharray: 5.55,2.4; stroke-dashoffset: 0; stroke: #008000; stroke-width: 1.5"/>
   </g>
   <g id="line2d_30">
    <path d="M 90 117.383541 
L 648 117.383541 
" clip-path="url(#pac719dfdc4)" style="fill: none; stroke-dasharray: 5.55,2.4; stroke-dashoffset: 0; stroke: #ffa500; stroke-width: 1.5"/>
   </g>
   <g id="line2d_31">
    <path d="M 90 215.134865 
L 648 215.134865 
" clip-path="url(#pac719dfdc4)" style="fill: none; stroke-dasharray: 5.55,2.4; stroke-dashoffset: 0; stroke: #ffa500; stroke-width: 1.5"/>
   </g>
   <g id="patch_3">
    <path d="M 90 320.4 
L 90 43.2 
" style="fill: none; stroke: #000000; stroke-width: 0.8; stroke-linejoin: miter; stroke-linecap: square"/>
   </g>
   <g id="patch_4">
    <path d="M 648 320.4 
L 648 43.2 
" style="fill: none; stroke: #000000; stroke-width: 0.8; stroke-linejoin: miter; stroke-linecap: square"/>
   </g>
   <g id="patch_5">
    <path d="M 90 320.4 
L 648 320.4 
" style="fill: none; stroke: #000000; stroke-width: 0.8; stroke-linejoin: miter; stroke-linecap: square"/>
   </g>
   <g id="patch_6">
    <path d="M 90 43.2 
L 648 43.2 
" style="fill: none; stroke: #000000; stroke-width: 0.8; stroke-linejoin: miter; stroke-linecap: square"/>
   </g>
   <g id="text_15">
    <!-- Latency over samples: A15_gpu_freq200_th80_focusrite -->
    <g transform="translate(200.685 37.2) scale(0.12 -0.12)">
     <defs>
      <path id="DejaVuSans-6f" d="M 1959 3097 
Q 1497 3097 1228 2736 
Q 959 2375 959 1747 
Q 959 1119 1226 758 
Q 1494 397 1959 397 
Q 2419 397 2687 759 
Q 2956 1122 2956 1747 
Q 2956 2369 2687 2733 
Q 2419 3097 1959 3097 
z
M 1959 3584 
Q 2709 3584 3137 3096 
Q 3566 2609 3566 1747 
Q 3566 888 3137 398 
Q 2709 -91 1959 -91 
Q 1206 -91 779 398 
Q 353 888 353 1747 
Q 353 2609 779 3096 
Q 1206 3584 1959 3584 
z
" transform="scale(0.015625)"/>
      <path id="DejaVuSans-76" d="M 191 3500 
L 800 3500 
L 1894 563 
L 2988 3500 
L 3597 3500 
L 2284 0 
L 1503 0 
L 191 3500 
z
" transform="scale(0.015625)"/>
      <path id="DejaVuSans-72" d="M 2631 2963 
Q 2534 3019 2420 3045 
Q 2306 3072 2169 3072 
Q 1681 3072 1420 2755 
Q 1159 2438 1159 1844 
L 1159 0 
L 581 0 
L 581 3500 
L 1159 3500 
L 1159 2956 
Q 1341 3275 1631 3429 
Q 1922 3584 2338 3584 
Q 2397 3584 2469 3576 
Q 2541 3569 2628 3553 
L 2631 2963 
z
" transform="scale(0.015625)"/>
      <path id="DejaVuSans-70" d="M 1159 525 
L 1159 -1331 
L 581 -1331 
L 581 3500 
L 1159 3500 
L 1159 2969 
Q 1341 3281 1617 3432 
Q 1894 3584 2278 3584 
Q 2916 3584 3314 3078 
Q 3713 2572 3713 1747 
Q 3713 922 3314 415 
Q 2916 -91 2278 -91 
Q 1894 -91 1617 61 
Q 1341 213 1159 525 
z
M 3116 1747 
Q 3116 2381 2855 2742 
Q 2594 3103 2138 3103 
Q 1681 3103 1420 2742 
Q 1159 2381 1159 1747 
Q 1159 1113 1420 752 
Q 1681 391 2138 391 
Q 2594 391 2855 752 
Q 3116 1113 3116 1747 
z
" transform="scale(0.015625)"/>
      <path id="DejaVuSans-6c" d="M 603 4863 
L 1178 4863 
L 1178 0 
L 603 0 
L 603 4863 
z
" transform="scale(0.015625)"/>
      <path id="DejaVuSans-3a" d="M 750 794 
L 1409 794 
L 1409 0 
L 750 0 
L 750 794 
z
M 750 3309 
L 1409 3309 
L 1409 2516 
L 750 2516 
L 750 3309 
z
" transform="scale(0.015625)"/>
      <path id="DejaVuSans-41" d="M 2188 4044 
L 1331 1722 
L 3047 1722 
L 2188 4044 
z
M 1831 4666 
L 2547 4666 
L 4325 0 
L 3669 0 
L 3244 1197 
L 1141 1197 
L 716 0 
L 50 0 
L 1831 4666 
z
" transform="scale(0.015625)"/>
      <path id="DejaVuSans-5f" d="M 3263 -1063 
L 3263 -1509 
L -63 -1509 
L -63 -1063 
L 3263 -1063 
z
" transform="scale(0.015625)"/>
      <path id="DejaVuSans-67" d="M 2906 1791 
Q 2906 2416 2648 2759 
Q 2391 3103 1925 3103 
Q 1463 3103 1205 2759 
Q 947 2416 947 1791 
Q 947 1169 1205 825 
Q 1463 481 1925 481 
Q 2391 481 2648 825 
Q 2906 1169 2906 1791 
z
M 3481 434 
Q 3481 -459 3084 -895 
Q 2688 -1331 1869 -1331 
Q 1566 -1331 1297 -1286 
Q 1028 -1241 775 -1147 
L 775 -588 
Q 1028 -725 1275 -790 
Q 1522 -856 1778 -856 
Q 2344 -856 2625 -561 
Q 2906 -266 2906 331 
L 2906 616 
Q 2728 306 2450 153 
Q 2172 0 1784 0 
Q 1141 0 747 490 
Q 353 981 353 1791 
Q 353 2603 747 3093 
Q 1141 3584 1784 3584 
Q 2172 3584 2450 3431 
Q 2728 3278 2906 2969 
L 2906 3500 
L 3481 3500 
L 3481 434 
z
" transform="scale(0.015625)"/>
      <path id="DejaVuSans-75" d="M 544 1381 
L 544 3500 
L 1119 3500 
L 1119 1403 
Q 1119 906 1312 657 
Q 1506 409 1894 409 
Q 2359 409 2629 706 
Q 2900 1003 2900 1516 
L 2900 3500 
L 3475 3500 
L 3475 0 
L 2900 0 
L 2900 538 
Q 2691 219 2414 64 
Q 2138 -91 1772 -91 
Q 1169 -91 856 284 
Q 544 659 544 1381 
z
M 1991 3584 
L 1991 3584 
z
" transform="scale(0.015625)"/>
      <path id="DejaVuSans-66" d="M 2375 4863 
L 2375 4384 
L 1825 4384 
Q 1516 4384 1395 4259 
Q 1275 4134 1275 3809 
L 1275 3500 
L 2222 3500 
L 2222 3053 
L 1275 3053 
L 1275 0 
L 697 0 
L 697 3053 
L 147 3053 
L 147 3500 
L 697 3500 
L 697 3744 
Q 697 4328 969 4595 
Q 1241 4863 1831 4863 
L 2375 4863 
z
" transform="scale(0.015625)"/>
      <path id="DejaVuSans-71" d="M 947 1747 
Q 947 1113 1208 752 
Q 1469 391 1925 391 
Q 2381 391 2643 752 
Q 2906 1113 2906 1747 
Q 2906 2381 2643 2742 
Q 2381 3103 1925 3103 
Q 1469 3103 1208 2742 
Q 947 2381 947 1747 
z
M 2906 525 
Q 2725 213 2448 61 
Q 2172 -91 1784 -91 
Q 1150 -91 751 415 
Q 353 922 353 1747 
Q 353 2572 751 3078 
Q 1150 3584 1784 3584 
Q 2172 3584 2448 3432 
Q 2725 3281 2906 2969 
L 2906 3500 
L 3481 3500 
L 3481 -1331 
L 2906 -1331 
L 2906 525 
z
" transform="scale(0.015625)"/>
      <path id="DejaVuSans-68" d="M 3513 2113 
L 3513 0 
L 2938 0 
L 2938 2094 
Q 2938 2591 2744 2837 
Q 2550 3084 2163 3084 
Q 1697 3084 1428 2787 
Q 1159 2491 1159 1978 
L 1159 0 
L 581 0 
L 581 4863 
L 1159 4863 
L 1159 2956 
Q 1366 3272 1645 3428 
Q 1925 3584 2291 3584 
Q 2894 3584 3203 3211 
Q 3513 2838 3513 2113 
z
" transform="scale(0.015625)"/>
      <path id="DejaVuSans-69" d="M 603 3500 
L 1178 3500 
L 1178 0 
L 603 0 
L 603 3500 
z
M 603 4863 
L 1178 4863 
L 1178 4134 
L 603 4134 
L 603 4863 
z
" transform="scale(0.015625)"/>
     </defs>
     <use xlink:href="#DejaVuSans-4c"/>
     <use xlink:href="#DejaVuSans-61" x="55.712891"/>
     <use xlink:href="#DejaVuSans-74" x="116.992188"/>
     <use xlink:href="#DejaVuSans-65" x="156.201172"/>
     <use xlink:href="#DejaVuSans-6e" x="217.724609"/>
     <use xlink:href="#DejaVuSans-63" x="281.103516"/>
     <use xlink:href="#DejaVuSans-79" x="336.083984"/>
     <use xlink:href="#DejaVuSans-20" x="395.263672"/>
     <use xlink:href="#DejaVuSans-6f" x="427.050781"/>
     <use xlink:href="#DejaVuSans-76" x="488.232422"/>
     <use xlink:href="#DejaVuSans-65" x="547.412109"/>
     <use xlink:href="#DejaVuSans-72" x="608.935547"/>
     <use xlink:href="#DejaVuSans-20" x="650.048828"/>
     <use xlink:href="#DejaVuSans-73" x="681.835938"/>
     <use xlink:href="#DejaVuSans-61" x="733.935547"/>
     <use xlink:href="#DejaVuSans-6d" x="795.214844"/>
     <use xlink:href="#DejaVuSans-70" x="892.626953"/>
     <use xlink:href="#DejaVuSans-6c" x="956.103516"/>
     <use xlink:href="#DejaVuSans-65" x="983.886719"/>
     <use xlink:href="#DejaVuSans-73" x="1045.410156"/>
     <use xlink:href="#DejaVuSans-3a" x="1097.509766"/>
     <use xlink:href="#DejaVuSans-20" x="1131.201172"/>
     <use xlink:href="#DejaVuSans-41" x="1162.988281"/>
     <use xlink:href="#DejaVuSans-31" x="1231.396484"/>
     <use xlink:href="#DejaVuSans-35" x="1295.019531"/>
     <use xlink:href="#DejaVuSans-5f" x="1358.642578"/>
     <use xlink:href="#DejaVuSans-67" x="1408.642578"/>
     <use xlink:href="#DejaVuSans-70" x="1472.119141"/>
     <use xlink:href="#DejaVuSans-75" x="1535.595703"/>
     <use xlink:href="#DejaVuSans-5f" x="1598.974609"/>
     <use xlink:href="#DejaVuSans-66" x="1648.974609"/>
     <use xlink:href="#DejaVuSans-72" x="1684.179688"/>
     <use xlink:href="#DejaVuSans-65" x="1723.042969"/>
     <use xlink:href="#DejaVuSans-71" x="1784.566406"/>
     <use xlink:href="#DejaVuSans-32" x="1848.042969"/>
     <use xlink:href="#DejaVuSans-30" x="1911.666016"/>
     <use xlink:href="#DejaVuSans-30" x="1975.289062"/>
     <use xlink:href="#DejaVuSans-5f" x="2038.912109"/>
     <use xlink:href="#DejaVuSans-74" x="2088.912109"/>
     <use xlink:href="#DejaVuSans-68" x="2128.121094"/>
     <use xlink:href="#DejaVuSans-38" x="2191.5"/>
     <use xlink:href="#DejaVuSans-30" x="2255.123047"/>
     <use xlink:href="#DejaVuSans-5f" x="2318.746094"/>
     <use xlink:href="#DejaVuSans-66" x="2368.746094"/>
     <use xlink:href="#DejaVuSans-6f" x="2403.951172"/>
     <use xlink:href="#DejaVuSans-63" x="2465.132812"/>
     <use xlink:href="#DejaVuSans-75" x="2520.113281"/>
     <use xlink:href="#DejaVuSans-73" x="2583.492188"/>
     <use xlink:href="#DejaVuSans-72" x="2635.591797"/>
     <use xlink:href="#DejaVuSans-69" x="2676.705078"/>
     <use xlink:href="#DejaVuSans-74" x="2704.488281"/>
     <use xlink:href="#DejaVuSans-65" x="2743.697266"/>
    </g>
   </g>
   <g id="legend_1">
    <g id="patch_7">
     <path d="M 294.9125 315.4 
L 443.0875 315.4 
Q 445.0875 315.4 445.0875 313.4 
L 445.0875 226.33125 
Q 445.0875 224.33125 443.0875 224.33125 
L 294.9125 224.33125 
Q 292.9125 224.33125 292.9125 226.33125 
L 292.9125 313.4 
Q 292.9125 315.4 294.9125 315.4 
z
" style="fill: #ffffff; opacity: 0.8; stroke: #cccccc; stroke-linejoin: miter"/>
    </g>
    <g id="line2d_32">
     <path d="M 296.9125 232.429688 
L 306.9125 232.429688 
L 316.9125 232.429688 
" style="fill: none; stroke-dasharray: 5.55,2.4; stroke-dashoffset: 0; stroke: #808080; stroke-width: 1.5"/>
    </g>
    <g id="text_16">
     <!-- Min = 9 ms -->
     <g transform="translate(324.9125 235.929688) scale(0.1 -0.1)">
      <defs>
       <path id="DejaVuSans-4d" d="M 628 4666 
L 1569 4666 
L 2759 1491 
L 3956 4666 
L 4897 4666 
L 4897 0 
L 4281 0 
L 4281 4097 
L 3078 897 
L 2444 897 
L 1241 4097 
L 1241 0 
L 628 0 
L 628 4666 
z
" transform="scale(0.015625)"/>
       <path id="DejaVuSans-3d" d="M 678 2906 
L 4684 2906 
L 4684 2381 
L 678 2381 
L 678 2906 
z
M 678 1631 
L 4684 1631 
L 4684 1100 
L 678 1100 
L 678 1631 
z
" transform="scale(0.015625)"/>
       <path id="DejaVuSans-39" d="M 703 97 
L 703 672 
Q 941 559 1184 500 
Q 1428 441 1663 441 
Q 2288 441 2617 861 
Q 2947 1281 2994 2138 
Q 2813 1869 2534 1725 
Q 2256 1581 1919 1581 
Q 1219 1581 811 2004 
Q 403 2428 403 3163 
Q 403 3881 828 4315 
Q 1253 4750 1959 4750 
Q 2769 4750 3195 4129 
Q 3622 3509 3622 2328 
Q 3622 1225 3098 567 
Q 2575 -91 1691 -91 
Q 1453 -91 1209 -44 
Q 966 3 703 97 
z
M 1959 2075 
Q 2384 2075 2632 2365 
Q 2881 2656 2881 3163 
Q 2881 3666 2632 3958 
Q 2384 4250 1959 4250 
Q 1534 4250 1286 3958 
Q 1038 3666 1038 3163 
Q 1038 2656 1286 2365 
Q 1534 2075 1959 2075 
z
" transform="scale(0.015625)"/>
      </defs>
      <use xlink:href="#DejaVuSans-4d"/>
      <use xlink:href="#DejaVuSans-69" x="86.279297"/>
      <use xlink:href="#DejaVuSans-6e" x="114.0625"/>
      <use xlink:href="#DejaVuSans-20" x="177.441406"/>
      <use xlink:href="#DejaVuSans-3d" x="209.228516"/>
      <use xlink:href="#DejaVuSans-20" x="293.017578"/>
      <use xlink:href="#DejaVuSans-39" x="324.804688"/>
      <use xlink:href="#DejaVuSans-20" x="388.427734"/>
      <use xlink:href="#DejaVuSans-6d" x="420.214844"/>
      <use xlink:href="#DejaVuSans-73" x="517.626953"/>
     </g>
    </g>
    <g id="line2d_33">
     <path d="M 296.9125 247.107813 
L 306.9125 247.107813 
L 316.9125 247.107813 
" style="fill: none; stroke-dasharray: 5.55,2.4; stroke-dashoffset: 0; stroke: #000000; stroke-width: 1.5"/>
    </g>
    <g id="text_17">
     <!-- Max = 26 ms -->
     <g transform="translate(324.9125 250.607813) scale(0.1 -0.1)">
      <use xlink:href="#DejaVuSans-4d"/>
      <use xlink:href="#DejaVuSans-61" x="86.279297"/>
      <use xlink:href="#DejaVuSans-78" x="147.558594"/>
      <use xlink:href="#DejaVuSans-20" x="206.738281"/>
      <use xlink:href="#DejaVuSans-3d" x="238.525391"/>
      <use xlink:href="#DejaVuSans-20" x="322.314453"/>
      <use xlink:href="#DejaVuSans-32" x="354.101562"/>
      <use xlink:href="#DejaVuSans-36" x="417.724609"/>
      <use xlink:href="#DejaVuSans-20" x="481.347656"/>
      <use xlink:href="#DejaVuSans-6d" x="513.134766"/>
      <use xlink:href="#DejaVuSans-73" x="610.546875"/>
     </g>
    </g>
    <g id="line2d_34">
     <path d="M 296.9125 261.785938 
L 306.9125 261.785938 
L 316.9125 261.785938 
" style="fill: none; stroke-dasharray: 1.5,2.475; stroke-dashoffset: 0; stroke: #800080; stroke-width: 1.5"/>
    </g>
    <g id="text_18">
     <!-- Median = 18.00 ms -->
     <g transform="translate(324.9125 265.285938) scale(0.1 -0.1)">
      <use xlink:href="#DejaVuSans-4d"/>
      <use xlink:href="#DejaVuSans-65" x="86.279297"/>
      <use xlink:href="#DejaVuSans-64" x="147.802734"/>
      <use xlink:href="#DejaVuSans-69" x="211.279297"/>
      <use xlink:href="#DejaVuSans-61" x="239.0625"/>
      <use xlink:href="#DejaVuSans-6e" x="300.341797"/>
      <use xlink:href="#DejaVuSans-20" x="363.720703"/>
      <use xlink:href="#DejaVuSans-3d" x="395.507812"/>
      <use xlink:href="#DejaVuSans-20" x="479.296875"/>
      <use xlink:href="#DejaVuSans-31" x="511.083984"/>
      <use xlink:href="#DejaVuSans-38" x="574.707031"/>
      <use xlink:href="#DejaVuSans-2e" x="638.330078"/>
      <use xlink:href="#DejaVuSans-30" x="670.117188"/>
      <use xlink:href="#DejaVuSans-30" x="733.740234"/>
      <use xlink:href="#DejaVuSans-20" x="797.363281"/>
      <use xlink:href="#DejaVuSans-6d" x="829.150391"/>
      <use xlink:href="#DejaVuSans-73" x="926.5625"/>
     </g>
    </g>
    <g id="line2d_35">
     <path d="M 296.9125 276.464063 
L 306.9125 276.464063 
L 316.9125 276.464063 
" style="fill: none; stroke-dasharray: 5.55,2.4; stroke-dashoffset: 0; stroke: #008000; stroke-width: 1.5"/>
    </g>
    <g id="text_19">
     <!-- Mean = 18.55 ms -->
     <g transform="translate(324.9125 279.964063) scale(0.1 -0.1)">
      <use xlink:href="#DejaVuSans-4d"/>
      <use xlink:href="#DejaVuSans-65" x="86.279297"/>
      <use xlink:href="#DejaVuSans-61" x="147.802734"/>
      <use xlink:href="#DejaVuSans-6e" x="209.082031"/>
      <use xlink:href="#DejaVuSans-20" x="272.460938"/>
      <use xlink:href="#DejaVuSans-3d" x="304.248047"/>
      <use xlink:href="#DejaVuSans-20" x="388.037109"/>
      <use xlink:href="#DejaVuSans-31" x="419.824219"/>
      <use xlink:href="#DejaVuSans-38" x="483.447266"/>
      <use xlink:href="#DejaVuSans-2e" x="547.070312"/>
      <use xlink:href="#DejaVuSans-35" x="578.857422"/>
      <use xlink:href="#DejaVuSans-35" x="642.480469"/>
      <use xlink:href="#DejaVuSans-20" x="706.103516"/>
      <use xlink:href="#DejaVuSans-6d" x="737.890625"/>
      <use xlink:href="#DejaVuSans-73" x="835.302734"/>
     </g>
    </g>
    <g id="line2d_36">
     <path d="M 296.9125 291.142188 
L 306.9125 291.142188 
L 316.9125 291.142188 
" style="fill: none; stroke-dasharray: 5.55,2.4; stroke-dashoffset: 0; stroke: #ffa500; stroke-width: 1.5"/>
    </g>
    <g id="text_20">
     <!-- Mean + 1σ = 21.85 ms -->
     <g transform="translate(324.9125 294.642188) scale(0.1 -0.1)">
      <defs>
       <path id="DejaVuSans-2b" d="M 2944 4013 
L 2944 2272 
L 4684 2272 
L 4684 1741 
L 2944 1741 
L 2944 0 
L 2419 0 
L 2419 1741 
L 678 1741 
L 678 2272 
L 2419 2272 
L 2419 4013 
L 2944 4013 
z
" transform="scale(0.015625)"/>
       <path id="DejaVuSans-3c3" d="M 1959 3044 
Q 1484 3044 1228 2700 
Q 959 2341 959 1747 
Q 959 1119 1226 758 
Q 1494 397 1959 397 
Q 2419 397 2687 759 
Q 2956 1122 2956 1747 
Q 2956 2319 2688 2700 
Q 2441 3044 1959 3044 
z
M 1959 3500 
L 3869 3500 
L 3869 2925 
L 3225 2925 
Q 3566 2438 3566 1747 
Q 3566 888 3138 400 
Q 2709 -91 1959 -91 
Q 1206 -91 781 400 
Q 353 888 353 1747 
Q 353 2613 781 3097 
Q 1134 3500 1959 3500 
z
" transform="scale(0.015625)"/>
      </defs>
      <use xlink:href="#DejaVuSans-4d"/>
      <use xlink:href="#DejaVuSans-65" x="86.279297"/>
      <use xlink:href="#DejaVuSans-61" x="147.802734"/>
      <use xlink:href="#DejaVuSans-6e" x="209.082031"/>
      <use xlink:href="#DejaVuSans-20" x="272.460938"/>
      <use xlink:href="#DejaVuSans-2b" x="304.248047"/>
      <use xlink:href="#DejaVuSans-20" x="388.037109"/>
      <use xlink:href="#DejaVuSans-31" x="419.824219"/>
      <use xlink:href="#DejaVuSans-3c3" x="483.447266"/>
      <use xlink:href="#DejaVuSans-20" x="546.826172"/>
      <use xlink:href="#DejaVuSans-3d" x="578.613281"/>
      <use xlink:href="#DejaVuSans-20" x="662.402344"/>
      <use xlink:href="#DejaVuSans-32" x="694.189453"/>
      <use xlink:href="#DejaVuSans-31" x="757.8125"/>
      <use xlink:href="#DejaVuSans-2e" x="821.435547"/>
      <use xlink:href="#DejaVuSans-38" x="853.222656"/>
      <use xlink:href="#DejaVuSans-35" x="916.845703"/>
      <use xlink:href="#DejaVuSans-20" x="980.46875"/>
      <use xlink:href="#DejaVuSans-6d" x="1012.255859"/>
      <use xlink:href="#DejaVuSans-73" x="1109.667969"/>
     </g>
    </g>
    <g id="line2d_37">
     <path d="M 296.9125 305.820312 
L 306.9125 305.820312 
L 316.9125 305.820312 
" style="fill: none; stroke-dasharray: 5.55,2.4; stroke-dashoffset: 0; stroke: #ffa500; stroke-width: 1.5"/>
    </g>
    <g id="text_21">
     <!-- Mean - 1σ = 15.25 ms -->
     <g transform="translate(324.9125 309.320312) scale(0.1 -0.1)">
      <defs>
       <path id="DejaVuSans-2d" d="M 313 2009 
L 1997 2009 
L 1997 1497 
L 313 1497 
L 313 2009 
z
" transform="scale(0.015625)"/>
      </defs>
      <use xlink:href="#DejaVuSans-4d"/>
      <use xlink:href="#DejaVuSans-65" x="86.279297"/>
      <use xlink:href="#DejaVuSans-61" x="147.802734"/>
      <use xlink:href="#DejaVuSans-6e" x="209.082031"/>
      <use xlink:href="#DejaVuSans-20" x="272.460938"/>
      <use xlink:href="#DejaVuSans-2d" x="304.248047"/>
      <use xlink:href="#DejaVuSans-20" x="340.332031"/>
      <use xlink:href="#DejaVuSans-31" x="372.119141"/>
      <use xlink:href="#DejaVuSans-3c3" x="435.742188"/>
      <use xlink:href="#DejaVuSans-20" x="499.121094"/>
      <use xlink:href="#DejaVuSans-3d" x="530.908203"/>
      <use xlink:href="#DejaVuSans-20" x="614.697266"/>
      <use xlink:href="#DejaVuSans-31" x="646.484375"/>
      <use xlink:href="#DejaVuSans-35" x="710.107422"/>
      <use xlink:href="#DejaVuSans-2e" x="773.730469"/>
      <use xlink:href="#DejaVuSans-32" x="805.517578"/>
      <use xlink:href="#DejaVuSans-35" x="869.140625"/>
      <use xlink:href="#DejaVuSans-20" x="932.763672"/>
      <use xlink:href="#DejaVuSans-6d" x="964.550781"/>
      <use xlink:href="#DejaVuSans-73" x="1061.962891"/>
     </g>
    </g>
   </g>
  </g>
 </g>
 <defs>
  <clipPath id="pac719dfdc4">
   <rect x="90" y="43.2" width="558" height="277.2"/>
  </clipPath>
 </defs>
</svg>
